<?xml version="1.0" encoding="utf-8"?>
<!-- Generator: Adobe Illustrator 25.3.1, SVG Export Plug-In . SVG Version: 6.00 Build 0)  -->
<svg version="1.1" id="icon-external-link" xmlns="http://www.w3.org/2000/svg" xmlns:xlink="http://www.w3.org/1999/xlink" x="0px"
	 y="0px" viewBox="0 0 1600 1000" style="enable-background:new 0 0 1600 1000;" xml:space="preserve">
<style type="text/css">
	.st0{fill:#AE9142;}
</style>
<path class="st0" d="M1362.5,46.9v250c0,41.9-50.7,62.5-80,33.1l-69.7-69.7L737.1,735.9c-18.3,18.3-48,18.3-66.3,0l-44.2-44.2
	c-18.3-18.3-18.3-48,0-66.3l475.6-475.6L1032.5,80c-29.4-29.4-8.6-80,33.1-80h250C1341.5,0,1362.5,21,1362.5,46.9z M1032.5,528.9
	l-31.2,31.2c-8.8,8.8-13.7,20.7-13.7,33.1V875h-625V250h515.6c12.4,0,24.4-4.9,33.1-13.7l31.2-31.2c29.5-29.5,8.6-80-33.1-80H331.2
	c-51.8,0-93.8,42-93.8,93.8v687.5c0,51.8,42,93.8,93.8,93.8h687.5c51.8,0,93.8-42,93.8-93.8V562
	C1112.5,520.3,1062,499.4,1032.5,528.9z"/>
</svg>
